<svg width="79" height="79" viewBox="0 0 79 79" fill="none" xmlns="http://www.w3.org/2000/svg">
<path d="M19.5958 39.2308C19.5958 50.0624 28.407 58.8736 39.2386 58.8736C50.0702 58.8736 58.8815 50.0624 58.8815 39.2308C58.8815 28.3992 50.0702 19.5879 39.2386 19.5879C28.407 19.5879 19.5958 28.3992 19.5958 39.2308ZM39.2386 27.4341C45.7431 27.4341 51.0353 32.7263 51.0353 39.2308C51.0353 45.7352 45.7431 51.0275 39.2386 51.0275C32.7342 51.0275 27.4419 45.7352 27.4419 39.2308C27.4419 32.7263 32.7342 27.4341 39.2386 27.4341ZM35.3077 66.6923H43.1538V78.4615H35.3077V66.6923ZM35.3077 0H43.1538V11.7692H35.3077V0ZM0 35.3077H11.7692V43.1538H0V35.3077ZM66.6923 35.3077H78.4615V43.1538H66.6923V35.3077ZM8.71315 64.1933L17.0301 55.8685L22.5812 61.4158L14.2643 69.7405L8.71315 64.1933ZM55.8725 17.0418L64.1972 8.71708L69.7445 14.2643L61.4197 22.5891L55.8725 17.0418ZM17.0418 22.593L8.71708 14.2682L14.2682 8.721L22.5852 17.0458L17.0418 22.593ZM69.7445 64.1972L64.1972 69.7445L55.8725 61.4197L61.4197 55.8725L69.7445 64.1972Z" fill="#F39C12"/>
</svg>
